<?xml version="1.0" encoding="UTF-8" standalone="no"?>
<!-- Created with Inkscape (http://www.inkscape.org/) -->

<svg
   version="1.1"
   id="svg1"
   width="430.66666"
   height="344"
   viewBox="0 0 430.66666 344"
   sodipodi:docname="mexican_hat.svg"
   inkscape:version="1.3.2 (091e20e, 2023-11-25, custom)"
   xmlns:inkscape="http://www.inkscape.org/namespaces/inkscape"
   xmlns:sodipodi="http://sodipodi.sourceforge.net/DTD/sodipodi-0.dtd"
   xmlns="http://www.w3.org/2000/svg"
   xmlns:svg="http://www.w3.org/2000/svg">
  <defs
     id="defs1">
    <clipPath
       clipPathUnits="userSpaceOnUse"
       id="clipPath2">
      <path
         d="M 0,0 H 7200 V 7200 H 0 Z"
         id="path2" />
    </clipPath>
    <clipPath
       clipPathUnits="userSpaceOnUse"
       id="clipPath3">
      <path
         d="M 0,0 H 7200 V 7200 H 0 Z"
         id="path3" />
    </clipPath>
    <pattern
       patternTransform="matrix(0.0100155,0,0,-0.0100292,-6.009302,-31.59183)"
       patternUnits="userSpaceOnUse"
       x="0"
       y="0"
       width="7200"
       height="7200"
       id="pattern5">
      <g
         id="g5">
        <path
           d="m 0,0 7200,0 0,7200 L 0,7200 0,0 Z"
           style="fill:#b3d5b3;fill-opacity:1;fill-rule:nonzero;stroke:none"
           clip-path="url(#clipPath2)"
           id="path4" />
        <path
           d="m -3600,3600 7200,7200 M -3200,3200 4000,10400 M -2800,2800 4400,10000 M -2400,2400 4800,9600 M -2000,2000 5200,9200 M -1600,1600 5600,8800 M -1200,1200 6000,8400 M -800,800 6400,8000 M -400,400 6800,7600 M 0,0 7200,7200 M 400,-400 7600,6800 M 800,-800 8000,6400 M 1200,-1200 8400,6000 M 1600,-1600 8800,5600 M 2000,-2000 9200,5200 M 2400,-2400 9600,4800 m -6800,-7600 7200,7200 m -6800,-7600 7200,7200 m -6800,-7600 7200,7200"
           style="fill:#b3d5b3;fill-opacity:1;fill-rule:nonzero;stroke:#ffffff;stroke-opacity:1;stroke-width:100;stroke-linecap:butt;stroke-linejoin:miter;stroke-miterlimit:10;stroke-dasharray:none"
           clip-path="url(#clipPath3)"
           id="path5" />
      </g>
    </pattern>
    <clipPath
       clipPathUnits="userSpaceOnUse"
       id="clipPath6">
      <path
         d="M 0,0 H 323 V 258 H 0 Z"
         id="path6" />
    </clipPath>
    <clipPath
       clipPathUnits="userSpaceOnUse"
       id="clipPath7">
      <path
         d="M 0,0 H 323 V 258 H 0 Z"
         transform="scale(1.0013628,-1)"
         id="path7" />
    </clipPath>
    <clipPath
       clipPathUnits="userSpaceOnUse"
       id="clipPath10">
      <path
         d="M 39.059,3.07 H 318.493 V 225.476 H 39.059 Z"
         transform="scale(1.3333333)"
         id="path10" />
    </clipPath>
    <clipPath
       clipPathUnits="userSpaceOnUse"
       id="clipPath11">
      <path
         d="M 0,0 H 7200 V 7200 H 0 Z"
         id="path11" />
    </clipPath>
    <clipPath
       clipPathUnits="userSpaceOnUse"
       id="clipPath12">
      <path
         d="M 0,0 H 7200 V 7200 H 0 Z"
         id="path12" />
    </clipPath>
    <pattern
       patternTransform="matrix(0.0100155,0,0,-0.0100292,-6.009302,-31.59183)"
       patternUnits="userSpaceOnUse"
       x="0"
       y="0"
       width="7200"
       height="7200"
       id="pattern14">
      <g
         id="g14">
        <path
           d="m 0,0 7200,0 0,7200 L 0,7200 0,0 Z"
           style="fill:#f7d5ea;fill-opacity:1;fill-rule:nonzero;stroke:none"
           clip-path="url(#clipPath11)"
           id="path13" />
        <path
           d="m -3600,3600 7200,7200 M -3200,3200 4000,10400 M -2800,2800 4400,10000 M -2400,2400 4800,9600 M -2000,2000 5200,9200 M -1600,1600 5600,8800 M -1200,1200 6000,8400 M -800,800 6400,8000 M -400,400 6800,7600 M 0,0 7200,7200 M 400,-400 7600,6800 M 800,-800 8000,6400 M 1200,-1200 8400,6000 M 1600,-1600 8800,5600 M 2000,-2000 9200,5200 M 2400,-2400 9600,4800 m -6800,-7600 7200,7200 m -6800,-7600 7200,7200 m -6800,-7600 7200,7200"
           style="fill:#f7d5ea;fill-opacity:1;fill-rule:nonzero;stroke:#ffffff;stroke-opacity:1;stroke-width:100;stroke-linecap:butt;stroke-linejoin:miter;stroke-miterlimit:10;stroke-dasharray:none"
           clip-path="url(#clipPath12)"
           id="path14" />
      </g>
    </pattern>
    <clipPath
       clipPathUnits="userSpaceOnUse"
       id="clipPath15">
      <path
         d="M 0,0 H 323 V 258 H 0 Z"
         id="path15" />
    </clipPath>
    <clipPath
       clipPathUnits="userSpaceOnUse"
       id="clipPath16">
      <path
         d="M 0,0 H 323 V 258 H 0 Z"
         transform="scale(1.0013628,-1)"
         id="path16" />
    </clipPath>
    <clipPath
       clipPathUnits="userSpaceOnUse"
       id="clipPath19">
      <path
         d="M 39.059,3.07 H 318.493 V 225.476 H 39.059 Z"
         transform="scale(1.3333333)"
         id="path19" />
    </clipPath>
    <clipPath
       clipPathUnits="userSpaceOnUse"
       id="clipPath20">
      <path
         d="M 0,0 H 7200 V 7200 H 0 Z"
         id="path20" />
    </clipPath>
    <clipPath
       clipPathUnits="userSpaceOnUse"
       id="clipPath21">
      <path
         d="M 0,0 H 7200 V 7200 H 0 Z"
         id="path21" />
    </clipPath>
    <pattern
       patternTransform="matrix(0.0100155,0,0,-0.0100292,-6.009302,-31.59183)"
       patternUnits="userSpaceOnUse"
       x="0"
       y="0"
       width="7200"
       height="7200"
       id="pattern23">
      <g
         id="g23">
        <path
           d="m 0,0 7200,0 0,7200 L 0,7200 0,0 Z"
           style="fill:#f7d5ea;fill-opacity:1;fill-rule:nonzero;stroke:none"
           clip-path="url(#clipPath20)"
           id="path22" />
        <path
           d="m -3600,3600 7200,7200 M -3200,3200 4000,10400 M -2800,2800 4400,10000 M -2400,2400 4800,9600 M -2000,2000 5200,9200 M -1600,1600 5600,8800 M -1200,1200 6000,8400 M -800,800 6400,8000 M -400,400 6800,7600 M 0,0 7200,7200 M 400,-400 7600,6800 M 800,-800 8000,6400 M 1200,-1200 8400,6000 M 1600,-1600 8800,5600 M 2000,-2000 9200,5200 M 2400,-2400 9600,4800 m -6800,-7600 7200,7200 m -6800,-7600 7200,7200 m -6800,-7600 7200,7200"
           style="fill:#f7d5ea;fill-opacity:1;fill-rule:nonzero;stroke:#ffffff;stroke-opacity:1;stroke-width:100;stroke-linecap:butt;stroke-linejoin:miter;stroke-miterlimit:10;stroke-dasharray:none"
           clip-path="url(#clipPath21)"
           id="path23" />
      </g>
    </pattern>
    <clipPath
       clipPathUnits="userSpaceOnUse"
       id="clipPath24">
      <path
         d="M 0,0 H 323 V 258 H 0 Z"
         id="path24" />
    </clipPath>
    <clipPath
       clipPathUnits="userSpaceOnUse"
       id="clipPath25">
      <path
         d="M 0,0 H 323 V 258 H 0 Z"
         transform="scale(1.0013628,-1)"
         id="path25" />
    </clipPath>
    <clipPath
       clipPathUnits="userSpaceOnUse"
       id="clipPath28">
      <path
         d="M 39.059,3.07 H 318.493 V 225.476 H 39.059 Z"
         transform="scale(1.3333333)"
         id="path28" />
    </clipPath>
    <clipPath
       clipPathUnits="userSpaceOnUse"
       id="clipPath30">
      <path
         d="M 0,0 H 323 V 258 H 0 Z"
         id="path30" />
    </clipPath>
    <clipPath
       clipPathUnits="userSpaceOnUse"
       id="clipPath32">
      <path
         d="m 32.203,227.746 h 28.195 v 17.008 H 32.203 Z"
         transform="scale(1.3333333)"
         id="path32" />
    </clipPath>
    <clipPath
       clipPathUnits="userSpaceOnUse"
       id="clipPath34">
      <path
         d="M 0,0 H 323 V 258 H 0 Z"
         id="path34" />
    </clipPath>
    <clipPath
       clipPathUnits="userSpaceOnUse"
       id="clipPath36">
      <path
         d="m 75.191,227.746 h 28.195 v 17.008 H 75.191 Z"
         transform="scale(1.3333333)"
         id="path36" />
    </clipPath>
    <clipPath
       clipPathUnits="userSpaceOnUse"
       id="clipPath38">
      <path
         d="M 0,0 H 323 V 258 H 0 Z"
         id="path38" />
    </clipPath>
    <clipPath
       clipPathUnits="userSpaceOnUse"
       id="clipPath40">
      <path
         d="m 118.184,227.746 h 28.191 v 17.008 h -28.191 z"
         transform="scale(1.3333333)"
         id="path40" />
    </clipPath>
    <clipPath
       clipPathUnits="userSpaceOnUse"
       id="clipPath47">
      <path
         d="M 0,0 H 323 V 258 H 0 Z"
         id="path47" />
    </clipPath>
    <clipPath
       clipPathUnits="userSpaceOnUse"
       id="clipPath49">
      <path
         d="M 0,199.742 H 25.699 V 216.75 H 0 Z"
         transform="scale(1.3333333)"
         id="path49" />
    </clipPath>
    <clipPath
       clipPathUnits="userSpaceOnUse"
       id="clipPath51">
      <path
         d="M 0,0 H 323 V 258 H 0 Z"
         id="path51" />
    </clipPath>
    <clipPath
       clipPathUnits="userSpaceOnUse"
       id="clipPath53">
      <path
         d="m 0,170.781 h 25.699 v 17.008 H 0 Z"
         transform="scale(1.3333333)"
         id="path53" />
    </clipPath>
    <clipPath
       clipPathUnits="userSpaceOnUse"
       id="clipPath63">
      <path
         d="M 0,0 H 323 V 258 H 0 Z"
         transform="scale(1.0013628,-1)"
         id="path63" />
    </clipPath>
    <clipPath
       clipPathUnits="userSpaceOnUse"
       id="clipPath65">
      <path
         d="M 39.059,3.07 H 318.493 V 225.476 H 39.059 Z"
         transform="scale(1.3333333)"
         id="path65" />
    </clipPath>
    <clipPath
       clipPathUnits="userSpaceOnUse"
       id="clipPath66">
      <path
         d="M 0,0 H 323 V 258 H 0 Z"
         transform="scale(1.0013628,-1)"
         id="path66" />
    </clipPath>
    <clipPath
       clipPathUnits="userSpaceOnUse"
       id="clipPath68">
      <path
         d="M 39.059,3.07 H 318.493 V 225.476 H 39.059 Z"
         transform="scale(1.3333333)"
         id="path68" />
    </clipPath>
    <clipPath
       clipPathUnits="userSpaceOnUse"
       id="clipPath69">
      <path
         d="M 0,0 H 323 V 258 H 0 Z"
         transform="scale(1.0013628,-1)"
         id="path69" />
    </clipPath>
    <clipPath
       clipPathUnits="userSpaceOnUse"
       id="clipPath71">
      <path
         d="M 39.059,3.07 H 318.493 V 225.476 H 39.059 Z"
         transform="scale(1.3333333)"
         id="path71" />
    </clipPath>
  </defs>
  <sodipodi:namedview
     id="namedview1"
     pagecolor="#ffffff"
     bordercolor="#666666"
     borderopacity="1.0"
     inkscape:showpageshadow="2"
     inkscape:pageopacity="0.0"
     inkscape:pagecheckerboard="0"
     inkscape:deskcolor="#d1d1d1"
     inkscape:zoom="1.193314"
     inkscape:cx="124.86236"
     inkscape:cy="122.76736"
     inkscape:window-width="1920"
     inkscape:window-height="1017"
     inkscape:window-x="1912"
     inkscape:window-y="-8"
     inkscape:window-maximized="1"
     inkscape:current-layer="g1">
    <inkscape:page
       x="0"
       y="0"
       id="page1"
       width="430.66666"
       height="344"
       margin="0"
       bleed="0"
       inkscape:export-filename="mexican_hat.png"
       inkscape:export-xdpi="400.041"
       inkscape:export-ydpi="400.041" />
  </sodipodi:namedview>
  <g
     id="g1"
     inkscape:groupmode="layer"
     inkscape:label="">
    <path
       id="path1"
       d="M 39.059,3.07 H 318.493 V 225.476 H 39.059 Z"
       style="fill:#ffffff;fill-opacity:1;fill-rule:nonzero;stroke:none"
       transform="scale(1.3333333)" />
    <g
       id="g9"
       clip-path="url(#clipPath10)">
      <path
         d="m 149.543,150.379 v 0.039 l 0.43,-1.887 0.429,-1.922 0.43,-1.957 0.43,-1.988 0.429,-2.019 0.434,-2.051 0.43,-2.078 0.429,-2.11 0.43,-2.133 0.43,-2.156 0.429,-2.179 0.43,-2.204 0.43,-2.222 0.429,-2.235 0.43,-2.254 0.43,-2.269 0.43,-2.281 0.429,-2.289 0.43,-2.293 0.859,-4.61 0.43,-2.308 0.43,-2.305 0.429,-2.301 0.434,-2.297 0.43,-2.289 0.429,-2.277 0.43,-2.266 0.43,-2.25 0.429,-2.234 0.43,-2.211 0.43,-2.191 0.429,-2.164 0.43,-2.137 0.43,-2.11 0.43,-2.074 0.429,-2.043 0.43,-2.004 0.43,-1.965 0.429,-1.921 0.43,-1.879 0.43,-1.832 0.433,-1.785 0.43,-1.735 0.43,-1.68 0.429,-1.625 0.43,-1.57 0.43,-1.508 0.429,-1.449 0.43,-1.387 0.43,-1.324 0.429,-1.254 0.43,-1.191 0.43,-1.117 0.43,-1.047 0.429,-0.977 0.43,-0.906 0.43,-0.828 0.429,-0.754 0.43,-0.676 0.43,-0.598 0.433,-0.519 0.43,-0.445 0.43,-0.36 0.429,-0.285 0.43,-0.199 0.43,-0.121 0.429,-0.043 0.43,0.043 0.43,0.121 0.429,0.199 0.43,0.285 0.43,0.36 0.429,0.445 0.43,0.519 0.43,0.598 0.43,0.676 0.429,0.754 0.43,0.828 0.43,0.906 0.433,0.977 0.43,1.047 0.43,1.117 0.429,1.191 0.43,1.254 0.43,1.324 0.429,1.387 0.43,1.449 0.43,1.508 0.429,1.57 0.43,1.625 0.43,1.68 0.429,1.735 0.43,1.785 0.43,1.832 0.429,1.879 0.43,1.921 0.43,1.965 0.433,2.004 0.43,2.043 0.43,2.074 0.43,2.11 0.429,2.137 0.43,2.164 0.43,2.191 0.429,2.211 0.43,2.234 0.43,2.25 0.429,2.266 0.43,2.277 0.43,2.289 0.429,2.297 0.43,2.301 0.43,2.305 0.429,2.308 0.86,4.61 0.433,2.293 0.43,2.289 0.43,2.281 0.429,2.269 0.43,2.254 0.43,2.235 0.43,2.222 0.429,2.204 0.43,2.179 0.43,2.156 0.429,2.133 0.43,2.11 0.43,2.078 0.429,2.051 0.43,2.019 0.43,1.988 0.429,1.957 0.43,1.922 0.43,1.887 v -0.039 z"
         style="fill:url(#pattern5);fill-opacity:1;fill-rule:nonzero;stroke:none"
         transform="scale(1.3333333)"
         clip-path="url(#clipPath6)"
         id="path8" />
      <path
         d="m 149.747,-150.379 v -0.039 l 0.43,1.887 0.43,1.922 0.431,1.957 0.43,1.988 0.43,2.019 0.434,2.051 0.431,2.078 0.43,2.11 0.43,2.133 0.43,2.156 0.431,2.179 0.43,2.204 0.43,2.222 0.431,2.235 0.43,2.254 0.43,2.269 0.43,2.281 0.431,2.289 0.43,2.293 0.86,4.61 0.431,2.308 0.43,2.305 0.43,2.301 0.434,2.297 0.431,2.289 0.43,2.277 0.43,2.266 0.431,2.25 0.43,2.234 0.43,2.211 0.43,2.191 0.431,2.164 0.43,2.137 0.43,2.11 0.43,2.074 0.431,2.043 0.43,2.004 0.43,1.965 0.431,1.921 0.43,1.879 0.43,1.832 0.434,1.785 0.431,1.735 0.43,1.68 0.43,1.625 0.43,1.57 0.431,1.508 0.43,1.449 0.43,1.387 0.43,1.324 0.431,1.254 0.43,1.191 0.43,1.117 0.431,1.047 0.43,0.977 0.43,0.906 0.43,0.828 0.431,0.754 0.43,0.676 0.43,0.598 0.434,0.519 0.431,0.445 0.43,0.36 0.43,0.285 0.43,0.199 0.431,0.121 0.43,0.043 0.43,-0.043 0.431,-0.121 0.43,-0.199 0.43,-0.285 0.43,-0.36 0.431,-0.445 0.43,-0.519 0.43,-0.598 0.43,-0.676 0.431,-0.754 0.43,-0.828 0.43,-0.906 0.434,-0.977 0.431,-1.047 0.43,-1.117 0.43,-1.191 0.431,-1.254 0.43,-1.324 0.43,-1.387 0.43,-1.449 0.431,-1.508 0.43,-1.57 0.43,-1.625 0.43,-1.68 0.431,-1.735 0.43,-1.785 0.43,-1.832 0.431,-1.879 0.43,-1.921 0.43,-1.965 0.434,-2.004 0.431,-2.043 0.43,-2.074 0.43,-2.11 0.43,-2.137 0.431,-2.164 0.43,-2.191 0.43,-2.211 0.43,-2.234 0.431,-2.25 0.43,-2.266 0.43,-2.277 0.431,-2.289 0.43,-2.297 0.43,-2.301 0.43,-2.305 0.431,-2.308 0.86,-4.61 0.434,-2.293 0.431,-2.289 0.43,-2.281 0.43,-2.269 0.43,-2.254 0.431,-2.235 0.43,-2.222 0.43,-2.204 0.431,-2.179 0.43,-2.156 0.43,-2.133 0.43,-2.11 0.431,-2.078 0.43,-2.051 0.43,-2.019 0.43,-1.988 0.431,-1.957 0.43,-1.922 0.43,-1.887 v 0.039 z"
         style="fill:none;stroke:#ffffff;stroke-width:1.00292;stroke-linecap:butt;stroke-linejoin:round;stroke-miterlimit:10;stroke-dasharray:none;stroke-opacity:1"
         transform="scale(1.3315187,-1.3333333)"
         clip-path="url(#clipPath7)"
         id="path9" />
    </g>
    <g
       id="g18"
       clip-path="url(#clipPath19)">
      <path
         d="m 39.059,150.379 v 0.586 l 0.433,0.019 0.86,0.039 0.429,0.024 0.43,0.019 1.719,0.094 0.859,0.055 0.43,0.023 0.429,0.028 0.43,0.031 0.43,0.027 0.43,0.031 0.429,0.028 0.43,0.031 0.43,0.035 0.433,0.031 1.289,0.106 0.43,0.039 0.43,0.035 0.429,0.039 0.43,0.043 0.43,0.039 1.289,0.129 1.289,0.141 1.289,0.152 0.433,0.055 0.86,0.109 0.859,0.117 0.43,0.063 0.43,0.058 0.429,0.067 0.43,0.062 0.43,0.067 1.289,0.211 0.859,0.148 1.289,0.235 0.43,0.082 0.433,0.085 0.43,0.086 0.859,0.18 1.29,0.281 1.289,0.305 0.429,0.106 0.86,0.218 0.429,0.114 1.289,0.351 0.86,0.25 0.433,0.129 0.43,0.129 0.43,0.137 0.429,0.132 0.86,0.282 0.429,0.148 0.43,0.145 0.86,0.304 1.289,0.481 0.859,0.336 0.859,0.351 0.43,0.18 0.434,0.184 0.429,0.183 0.43,0.192 0.859,0.39 0.43,0.199 0.859,0.415 0.43,0.21 0.43,0.215 0.43,0.219 0.429,0.223 0.43,0.226 0.43,0.231 0.429,0.234 0.43,0.238 0.43,0.243 0.429,0.246 0.43,0.25 0.434,0.254 0.859,0.523 0.43,0.266 0.429,0.269 0.86,0.555 0.859,0.57 0.43,0.293 0.43,0.297 0.429,0.301 0.43,0.305 0.43,0.308 0.429,0.313 0.43,0.316 0.43,0.32 0.859,0.657 0.434,0.332 0.429,0.339 0.86,0.688 0.859,0.703 0.43,0.359 0.429,0.364 0.86,0.734 0.859,0.75 0.86,0.766 0.859,0.781 0.859,0.789 0.43,0.402 0.434,0.403 0.429,0.406 0.86,0.82 0.859,0.828 0.859,0.836 0.86,0.844 0.429,0.426 0.43,0.422 2.149,2.129 0.429,0.422 0.434,0.425 0.43,0.422 1.289,1.254 0.429,0.414 0.43,0.41 0.43,0.407 0.429,0.402 0.43,0.398 0.43,0.395 0.429,0.387 0.43,0.382 0.43,0.379 0.429,0.368 0.43,0.363 0.43,0.355 0.43,0.344 0.429,0.34 0.434,0.324 0.429,0.32 0.43,0.305 0.43,0.297 0.43,0.281 0.429,0.274 0.43,0.257 0.43,0.243 0.429,0.226 0.43,0.215 0.43,0.195 0.429,0.18 0.43,0.164 0.43,0.145 0.429,0.125 0.43,0.105 0.43,0.086 0.43,0.063 0.429,0.039 0.434,0.019 0.429,-0.004 0.43,-0.031 0.43,-0.059 0.43,-0.082 0.429,-0.109 0.43,-0.137 0.43,-0.164 0.429,-0.195 0.43,-0.227 0.43,-0.254 0.429,-0.289 0.43,-0.32 0.43,-0.355 0.429,-0.387 0.43,-0.422 0.43,-0.461 0.429,-0.492 0.434,-0.531 0.43,-0.571 0.429,-0.609 0.43,-0.645 0.43,-0.683 0.43,-0.727 0.429,-0.765 0.43,-0.805 0.43,-0.848 0.429,-0.89 0.43,-0.934 0.43,-0.973 0.429,-1.015 0.43,-1.059 0.43,-1.105 0.429,-1.145 0.43,-1.191 0.43,-1.231 0.429,-1.277 0.434,-1.32 0.43,-1.364 0.429,-1.406 0.43,-1.449 0.43,-1.492 0.429,-1.532 0.43,-1.578 0.43,-1.617 0.43,-1.656 0.429,-1.699 0.43,-1.739 0.43,-1.773 0.429,-1.816 0.43,-1.852 v -0.039 z"
         style="fill:url(#pattern14);fill-opacity:1;fill-rule:nonzero;stroke:none"
         transform="scale(1.3333333)"
         clip-path="url(#clipPath15)"
         id="path17" />
      <path
         d="m 39.112,-150.379 v -0.586 l 0.434,-0.019 0.861,-0.039 0.43,-0.024 0.43,-0.019 1.721,-0.094 0.861,-0.055 0.43,-0.023 0.43,-0.028 0.431,-0.031 0.43,-0.027 0.43,-0.031 0.43,-0.028 0.431,-0.031 0.43,-0.035 0.434,-0.031 1.291,-0.106 0.43,-0.039 0.43,-0.035 0.431,-0.039 0.43,-0.043 0.43,-0.039 1.291,-0.129 1.291,-0.141 1.291,-0.152 0.434,-0.055 0.86,-0.109 0.861,-0.117 0.43,-0.063 0.431,-0.058 0.43,-0.067 0.43,-0.062 0.43,-0.067 1.291,-0.211 0.861,-0.148 1.291,-0.235 0.43,-0.082 0.434,-0.085 0.43,-0.086 0.861,-0.18 1.291,-0.281 1.291,-0.305 0.43,-0.106 0.86,-0.218 0.431,-0.114 1.29,-0.351 0.861,-0.25 0.434,-0.129 0.43,-0.129 0.431,-0.137 0.43,-0.132 0.861,-0.282 0.43,-0.148 0.43,-0.145 0.861,-0.304 1.29,-0.481 0.861,-0.336 0.861,-0.351 0.43,-0.18 0.434,-0.184 0.43,-0.183 0.431,-0.192 0.86,-0.39 0.43,-0.199 0.861,-0.415 0.43,-0.21 0.43,-0.215 0.431,-0.219 0.43,-0.223 0.43,-0.226 0.431,-0.231 0.43,-0.234 0.43,-0.238 0.43,-0.243 0.431,-0.246 0.43,-0.25 0.434,-0.254 0.861,-0.523 0.43,-0.266 0.43,-0.269 0.861,-0.555 0.86,-0.57 0.431,-0.293 0.43,-0.297 0.43,-0.301 0.43,-0.305 0.431,-0.308 0.43,-0.313 0.43,-0.316 0.43,-0.32 0.861,-0.657 0.434,-0.332 0.43,-0.339 0.861,-0.688 0.861,-0.703 0.43,-0.359 0.43,-0.364 0.861,-0.734 0.86,-0.75 0.861,-0.766 0.86,-0.781 0.861,-0.789 0.43,-0.402 0.434,-0.403 0.431,-0.406 0.86,-0.82 0.861,-0.828 0.86,-0.836 0.861,-0.844 0.43,-0.426 0.43,-0.422 2.152,-2.129 0.43,-0.422 0.434,-0.425 0.43,-0.422 1.291,-1.254 0.43,-0.414 0.431,-0.41 0.43,-0.407 0.43,-0.402 0.431,-0.398 0.43,-0.395 0.43,-0.387 0.43,-0.382 0.431,-0.379 0.43,-0.368 0.43,-0.363 0.43,-0.355 0.431,-0.344 0.43,-0.34 0.434,-0.324 0.43,-0.32 0.431,-0.305 0.43,-0.297 0.43,-0.281 0.431,-0.274 0.43,-0.257 0.43,-0.243 0.43,-0.226 0.431,-0.215 0.43,-0.195 0.43,-0.18 0.43,-0.164 0.431,-0.145 0.43,-0.125 0.43,-0.105 0.431,-0.086 0.43,-0.063 0.43,-0.039 0.434,-0.019 0.431,0.004 0.43,0.031 0.43,0.059 0.43,0.082 0.431,0.109 0.43,0.137 0.43,0.164 0.43,0.195 0.431,0.227 0.43,0.254 0.43,0.289 0.431,0.32 0.43,0.355 0.43,0.387 0.43,0.422 0.431,0.461 0.43,0.492 0.434,0.531 0.43,0.571 0.431,0.609 0.43,0.645 0.43,0.683 0.431,0.727 0.43,0.765 0.43,0.805 0.43,0.848 0.431,0.89 0.43,0.934 0.43,0.973 0.43,1.015 0.431,1.059 0.43,1.105 0.43,1.145 0.431,1.191 0.43,1.231 0.43,1.277 0.434,1.32 0.431,1.364 0.43,1.406 0.43,1.449 0.43,1.492 0.431,1.532 0.43,1.578 0.43,1.617 0.43,1.656 0.431,1.699 0.43,1.739 0.43,1.773 0.431,1.816 0.43,1.852 v 0.039 z"
         style="fill:none;stroke:#ffffff;stroke-width:1.00292;stroke-linecap:butt;stroke-linejoin:round;stroke-miterlimit:10;stroke-dasharray:none;stroke-opacity:1"
         transform="scale(1.3315187,-1.3333333)"
         clip-path="url(#clipPath16)"
         id="path18" />
    </g>
    <g
       id="g27"
       clip-path="url(#clipPath28)">
      <path
         d="m 208.008,150.379 v 0.039 l 0.433,1.852 0.43,1.816 0.43,1.773 0.429,1.739 0.43,1.699 0.43,1.656 0.43,1.617 0.429,1.578 0.43,1.532 0.43,1.492 0.429,1.449 0.43,1.406 0.43,1.364 0.429,1.32 0.43,1.277 0.43,1.231 0.429,1.191 0.43,1.145 0.43,1.105 0.433,1.059 0.43,1.015 0.43,0.973 0.429,0.934 0.43,0.89 0.43,0.848 0.43,0.805 0.429,0.765 0.43,0.727 0.43,0.683 0.429,0.645 0.43,0.609 0.43,0.571 0.429,0.531 0.43,0.492 0.43,0.461 0.429,0.422 0.43,0.387 0.434,0.355 0.429,0.32 0.43,0.289 0.43,0.254 0.429,0.227 0.43,0.195 0.43,0.164 0.429,0.137 0.43,0.109 0.43,0.082 0.43,0.059 0.429,0.027 0.43,0.008 0.43,-0.019 0.429,-0.039 0.43,-0.063 0.43,-0.086 0.429,-0.105 0.43,-0.125 0.434,-0.145 0.429,-0.164 0.43,-0.18 0.43,-0.195 0.429,-0.215 0.43,-0.226 0.43,-0.243 0.429,-0.257 0.43,-0.274 0.43,-0.281 0.429,-0.297 0.43,-0.305 0.43,-0.32 0.43,-0.324 0.429,-0.34 0.43,-0.344 0.43,-0.355 0.429,-0.363 0.43,-0.368 0.434,-0.379 0.429,-0.382 0.43,-0.387 0.43,-0.395 0.429,-0.398 0.43,-0.402 0.43,-0.407 0.429,-0.41 0.43,-0.414 1.289,-1.254 0.43,-0.422 0.43,-0.425 0.429,-0.422 1.289,-1.278 0.434,-0.425 0.43,-0.426 0.429,-0.422 0.43,-0.426 0.859,-0.844 0.86,-0.836 0.859,-0.828 0.859,-0.82 0.43,-0.406 0.86,-0.805 0.859,-0.789 0.859,-0.781 0.434,-0.383 0.43,-0.383 0.859,-0.75 0.859,-0.734 0.43,-0.364 0.43,-0.359 0.859,-0.703 0.859,-0.688 0.43,-0.339 0.43,-0.332 0.859,-0.657 0.43,-0.32 0.43,-0.316 0.429,-0.313 0.434,-0.308 0.43,-0.305 0.429,-0.301 0.43,-0.297 0.43,-0.293 0.859,-0.57 0.859,-0.555 0.43,-0.269 0.43,-0.266 0.859,-0.523 0.43,-0.254 0.429,-0.25 0.43,-0.246 0.43,-0.243 0.429,-0.238 0.43,-0.234 0.434,-0.231 0.429,-0.226 0.43,-0.223 0.43,-0.219 0.43,-0.215 0.859,-0.421 0.43,-0.204 0.859,-0.398 0.859,-0.383 0.86,-0.367 0.429,-0.18 0.86,-0.351 0.429,-0.168 0.434,-0.168 1.289,-0.481 0.859,-0.304 0.43,-0.145 0.43,-0.148 0.859,-0.282 0.43,-0.132 0.43,-0.137 0.859,-0.258 0.859,-0.25 0.43,-0.117 0.43,-0.121 0.429,-0.113 0.434,-0.114 0.859,-0.218 0.43,-0.106 1.289,-0.305 0.43,-0.093 0.43,-0.098 1.289,-0.27 0.859,-0.171 0.43,-0.082 1.289,-0.235 0.429,-0.074 0.434,-0.074 1.289,-0.211 0.43,-0.067 0.429,-0.062 0.43,-0.067 0.43,-0.062 1.289,-0.176 1.289,-0.164 1.289,-0.152 0.43,-0.047 0.433,-0.047 0.43,-0.047 1.719,-0.172 0.859,-0.078 0.43,-0.035 0.429,-0.039 1.29,-0.106 0.429,-0.031 0.43,-0.035 0.859,-0.062 0.43,-0.028 0.43,-0.031 0.433,-0.027 0.86,-0.055 0.429,-0.023 0.43,-0.028 1.719,-0.094 0.429,-0.019 0.43,-0.024 1.289,-0.058 v -0.586 z"
         style="fill:url(#pattern23);fill-opacity:1;fill-rule:nonzero;stroke:none"
         transform="scale(1.3333333)"
         clip-path="url(#clipPath24)"
         id="path26" />
      <path
         d="m 208.291,-150.379 v -0.039 l 0.435,-1.852 0.43,-1.816 0.43,-1.773 0.43,-1.739 0.431,-1.699 0.43,-1.656 0.43,-1.617 0.43,-1.578 0.431,-1.532 0.43,-1.492 0.43,-1.449 0.431,-1.406 0.43,-1.364 0.43,-1.32 0.43,-1.277 0.431,-1.231 0.43,-1.191 0.43,-1.145 0.43,-1.105 0.435,-1.059 0.43,-1.015 0.43,-0.973 0.43,-0.934 0.431,-0.89 0.43,-0.848 0.43,-0.805 0.431,-0.765 0.43,-0.727 0.43,-0.683 0.43,-0.645 0.431,-0.609 0.43,-0.571 0.43,-0.531 0.43,-0.492 0.431,-0.461 0.43,-0.422 0.43,-0.387 0.434,-0.355 0.431,-0.32 0.43,-0.289 0.43,-0.254 0.431,-0.227 0.43,-0.195 0.43,-0.164 0.43,-0.137 0.431,-0.109 0.43,-0.082 0.43,-0.059 0.43,-0.027 0.431,-0.008 0.43,0.019 0.43,0.039 0.431,0.063 0.43,0.086 0.43,0.105 0.43,0.125 0.435,0.145 0.43,0.164 0.43,0.18 0.43,0.195 0.431,0.215 0.43,0.226 0.43,0.243 0.43,0.257 0.431,0.274 0.43,0.281 0.43,0.297 0.431,0.305 0.43,0.32 0.43,0.324 0.43,0.34 0.431,0.344 0.43,0.355 0.43,0.363 0.43,0.368 0.435,0.379 0.43,0.382 0.43,0.387 0.43,0.395 0.431,0.398 0.43,0.402 0.43,0.407 0.431,0.41 0.43,0.414 1.291,1.254 0.43,0.422 0.43,0.425 0.43,0.422 1.291,1.278 0.434,0.425 0.431,0.426 0.43,0.422 0.43,0.426 0.861,0.844 0.86,0.836 0.861,0.828 0.86,0.82 0.431,0.406 0.86,0.805 0.861,0.789 0.86,0.781 0.435,0.383 0.43,0.383 0.86,0.75 0.861,0.734 0.43,0.364 0.43,0.359 0.861,0.703 0.861,0.688 0.43,0.339 0.43,0.332 0.861,0.657 0.43,0.32 0.43,0.316 0.43,0.313 0.435,0.308 0.43,0.305 0.43,0.301 0.43,0.297 0.431,0.293 0.86,0.57 0.861,0.555 0.43,0.269 0.43,0.266 0.861,0.523 0.43,0.254 0.43,0.25 0.431,0.246 0.43,0.243 0.43,0.238 0.431,0.234 0.434,0.231 0.43,0.226 0.43,0.223 0.431,0.219 0.43,0.215 0.86,0.421 0.431,0.204 0.86,0.398 0.861,0.383 0.86,0.367 0.431,0.18 0.86,0.351 0.43,0.168 0.435,0.168 1.29,0.481 0.861,0.304 0.43,0.145 0.431,0.148 0.86,0.282 0.43,0.132 0.431,0.137 0.86,0.258 0.861,0.25 0.43,0.117 0.43,0.121 0.431,0.113 0.434,0.114 0.86,0.218 0.431,0.106 1.29,0.305 0.431,0.093 0.43,0.098 1.291,0.27 0.86,0.171 0.431,0.082 1.29,0.235 0.431,0.074 0.434,0.074 1.291,0.211 0.43,0.067 0.43,0.062 0.43,0.067 0.431,0.062 1.291,0.176 1.29,0.164 1.291,0.152 0.43,0.047 0.435,0.047 0.43,0.047 1.721,0.172 0.861,0.078 0.43,0.035 0.43,0.039 1.291,0.106 0.43,0.031 0.43,0.035 0.861,0.062 0.43,0.028 0.431,0.031 0.434,0.027 0.86,0.055 0.431,0.023 0.43,0.028 1.721,0.094 0.43,0.019 0.43,0.024 1.291,0.058 v 0.586 z"
         style="fill:none;stroke:#ffffff;stroke-width:1.00292;stroke-linecap:butt;stroke-linejoin:round;stroke-miterlimit:10;stroke-dasharray:none;stroke-opacity:1"
         transform="scale(1.3315187,-1.3333333)"
         clip-path="url(#clipPath25)"
         id="path27" />
    </g>
    <path
       id="path29"
       d="m 49.876,225.477 v 3.507"
       style="fill:none;stroke:#000000;stroke-width:0.802335;stroke-linecap:butt;stroke-linejoin:round;stroke-miterlimit:10;stroke-dasharray:none;stroke-opacity:1"
       transform="scale(1.3315187,1.3333333)" />
    <text
       id="text29"
       xml:space="preserve"
       transform="matrix(1.3333333,0,0,1.3351505,67.761548,320.14899)"><tspan
         style="font-variant:normal;font-weight:normal;font-size:10.0155px;font-family:'DejaVu Sans';writing-mode:lr-tb;fill:#000000;fill-opacity:1;fill-rule:nonzero;stroke:none"
         x="0"
         y="0"
         id="tspan29">6</tspan></text>
    <g
       id="g31"
       clip-path="url(#clipPath32)">
      <path
         d="m 43.492,236.551 h 6.27 v 0.832 h -6.27 z"
         style="fill:#000000;fill-opacity:1;fill-rule:nonzero;stroke:none"
         transform="scale(1.3333333)"
         clip-path="url(#clipPath30)"
         id="path31" />
    </g>
    <path
       id="path33"
       d="m 92.923,225.477 v 3.507"
       style="fill:none;stroke:#000000;stroke-width:0.802335;stroke-linecap:butt;stroke-linejoin:round;stroke-miterlimit:10;stroke-dasharray:none;stroke-opacity:1"
       transform="scale(1.3315187,1.3333333)" />
    <text
       id="text33"
       xml:space="preserve"
       transform="matrix(1.3333333,0,0,1.3351505,125.08104,320.14899)"><tspan
         style="font-variant:normal;font-weight:normal;font-size:10.0155px;font-family:'DejaVu Sans';writing-mode:lr-tb;fill:#000000;fill-opacity:1;fill-rule:nonzero;stroke:none"
         x="0"
         y="0"
         id="tspan33">4</tspan></text>
    <g
       id="g35"
       clip-path="url(#clipPath36)">
      <path
         d="m 86.48,236.551 h 6.27 v 0.832 h -6.27 z"
         style="fill:#000000;fill-opacity:1;fill-rule:nonzero;stroke:none"
         transform="scale(1.3333333)"
         clip-path="url(#clipPath34)"
         id="path35" />
    </g>
    <path
       id="path37"
       d="m 135.974,225.477 v 3.507"
       style="fill:none;stroke:#000000;stroke-width:0.802335;stroke-linecap:butt;stroke-linejoin:round;stroke-miterlimit:10;stroke-dasharray:none;stroke-opacity:1"
       transform="scale(1.3315187,1.3333333)" />
    <text
       id="text37"
       xml:space="preserve"
       transform="matrix(1.3333333,0,0,1.3351505,182.40055,320.14899)"><tspan
         style="font-variant:normal;font-weight:normal;font-size:10.0155px;font-family:'DejaVu Sans';writing-mode:lr-tb;fill:#000000;fill-opacity:1;fill-rule:nonzero;stroke:none"
         x="0"
         y="0"
         id="tspan37">2</tspan></text>
    <g
       id="g39"
       clip-path="url(#clipPath40)">
      <path
         d="m 129.469,236.551 h 6.27 v 0.832 h -6.27 z"
         style="fill:#000000;fill-opacity:1;fill-rule:nonzero;stroke:none"
         transform="scale(1.3333333)"
         clip-path="url(#clipPath38)"
         id="path39" />
    </g>
    <path
       id="path41"
       d="m 179.021,225.477 v 3.507"
       style="fill:none;stroke:#000000;stroke-width:0.802335;stroke-linecap:butt;stroke-linejoin:round;stroke-miterlimit:10;stroke-dasharray:none;stroke-opacity:1"
       transform="scale(1.3315187,1.3333333)" />
    <text
       id="text41"
       xml:space="preserve"
       transform="matrix(1.3333333,0,0,1.3351505,234.12284,320.14899)"><tspan
         style="font-variant:normal;font-weight:normal;font-size:10.0155px;font-family:'DejaVu Sans';writing-mode:lr-tb;fill:#000000;fill-opacity:1;fill-rule:nonzero;stroke:none"
         x="0"
         y="0"
         id="tspan41">0</tspan></text>
    <path
       id="path42"
       d="m 222.068,225.477 v 3.507"
       style="fill:none;stroke:#000000;stroke-width:0.802335;stroke-linecap:butt;stroke-linejoin:round;stroke-miterlimit:10;stroke-dasharray:none;stroke-opacity:1"
       transform="scale(1.3315187,1.3333333)" />
    <text
       id="text42"
       xml:space="preserve"
       transform="matrix(1.3333333,0,0,1.3351505,291.44233,320.14899)"><tspan
         style="font-variant:normal;font-weight:normal;font-size:10.0155px;font-family:'DejaVu Sans';writing-mode:lr-tb;fill:#000000;fill-opacity:1;fill-rule:nonzero;stroke:none"
         x="0"
         y="0"
         id="tspan42">2</tspan></text>
    <path
       id="path43"
       d="m 265.119,225.477 v 3.507"
       style="fill:none;stroke:#000000;stroke-width:0.802335;stroke-linecap:butt;stroke-linejoin:round;stroke-miterlimit:10;stroke-dasharray:none;stroke-opacity:1"
       transform="scale(1.3315187,1.3333333)" />
    <text
       id="text43"
       xml:space="preserve"
       transform="matrix(1.3333333,0,0,1.3351505,348.76183,320.14899)"><tspan
         style="font-variant:normal;font-weight:normal;font-size:10.0155px;font-family:'DejaVu Sans';writing-mode:lr-tb;fill:#000000;fill-opacity:1;fill-rule:nonzero;stroke:none"
         x="0"
         y="0"
         id="tspan43">4</tspan></text>
    <path
       id="path44"
       d="m 308.166,225.477 v 3.507"
       style="fill:none;stroke:#000000;stroke-width:0.802335;stroke-linecap:butt;stroke-linejoin:round;stroke-miterlimit:10;stroke-dasharray:none;stroke-opacity:1"
       transform="scale(1.3315187,1.3333333)" />
    <text
       id="text44"
       xml:space="preserve"
       transform="matrix(1.3333333,0,0,1.3351505,406.08134,320.14899)"
       style="-inkscape-font-specification:'DejaVu Sans, Normal';font-family:'DejaVu Sans';font-weight:normal;font-style:normal;font-stretch:normal;font-variant:normal;font-size:10.0155px;font-variant-ligatures:normal;font-variant-caps:normal;font-variant-numeric:normal;font-variant-east-asian:normal"><tspan
         sodipodi:role="line"
         id="tspan75">6</tspan></text>
    <text
       id="text44-9"
       xml:space="preserve"
       transform="scale(0.99931926,1.0006812)"
       x="450.48901"
       y="317.24319"
       style="font-size:20.1434px;stroke-width:1.67862"><tspan
         style="font-style:oblique;font-variant:normal;font-weight:normal;font-size:16.8122px;font-family:'DejaVu Sans';writing-mode:lr-tb;fill:#000000;fill-opacity:1;fill-rule:nonzero;stroke:none;stroke-width:1.67862"
         x="111.57279"
         y="340.09729"
         id="tspan45-2">d</tspan><tspan
         style="font-variant:normal;font-weight:normal;font-size:16.8122px;font-family:'DejaVu Sans';writing-mode:lr-tb;fill:#000000;fill-opacity:1;fill-rule:nonzero;stroke:none;stroke-width:1.67862"
         x="122.2446 127.58872 134.14777 147.09344 151.76442 160.52348 167.11534 177.41771 188.07307 197.31647 207.65987 213.00398 223.67578 234.01915 240.61099 254.36104 264.7045 275.04788 285.70325 291.04733 301.7027 312.04614 322.70148 329.61353 339.89951 350.55481 359.31393"
         y="340.09729"
         sodipodi:role="line"
         id="tspan46-1"> (Distance between neurons)</tspan></text>
    <path
       id="path46"
       d="M 39.112,208.301 H 35.603"
       style="fill:none;stroke:#000000;stroke-width:0.802335;stroke-linecap:butt;stroke-linejoin:round;stroke-miterlimit:10;stroke-dasharray:none;stroke-opacity:1"
       transform="scale(1.3315187,1.3333333)" />
    <text
       id="text46"
       xml:space="preserve"
       transform="matrix(1.3333333,0,0,1.3351505,21.49682,282.80943)"><tspan
         style="font-variant:normal;font-weight:normal;font-size:10.0155px;font-family:'DejaVu Sans';writing-mode:lr-tb;fill:#000000;fill-opacity:1;fill-rule:nonzero;stroke:none"
         x="0 6.3721528 9.5557842"
         y="0"
         sodipodi:role="line"
         id="tspan47">0.2</tspan></text>
    <g
       id="g48"
       clip-path="url(#clipPath49)">
      <path
         d="m 8.793,208.547 h 6.27 v 0.832 h -6.27 z"
         style="fill:#000000;fill-opacity:1;fill-rule:nonzero;stroke:none"
         transform="scale(1.3333333)"
         clip-path="url(#clipPath47)"
         id="path48" />
    </g>
    <path
       id="path50"
       d="M 39.112,179.34 H 35.603"
       style="fill:none;stroke:#000000;stroke-width:0.802335;stroke-linecap:butt;stroke-linejoin:round;stroke-miterlimit:10;stroke-dasharray:none;stroke-opacity:1"
       transform="scale(1.3315187,1.3333333)" />
    <text
       id="text50"
       xml:space="preserve"
       transform="matrix(1.3333333,0,0,1.3351505,21.49682,244.19516)"><tspan
         style="font-variant:normal;font-weight:normal;font-size:10.0155px;font-family:'DejaVu Sans';writing-mode:lr-tb;fill:#000000;fill-opacity:1;fill-rule:nonzero;stroke:none"
         x="0 6.3721528 9.5557842"
         y="0"
         sodipodi:role="line"
         id="tspan50">0.1</tspan></text>
    <g
       id="g52"
       clip-path="url(#clipPath53)">
      <path
         d="m 8.793,179.586 h 6.27 v 0.832 h -6.27 z"
         style="fill:#000000;fill-opacity:1;fill-rule:nonzero;stroke:none"
         transform="scale(1.3333333)"
         clip-path="url(#clipPath51)"
         id="path52" />
    </g>
    <path
       id="path54"
       d="M 39.112,150.379 H 35.603"
       style="fill:none;stroke:#000000;stroke-width:0.802335;stroke-linecap:butt;stroke-linejoin:round;stroke-miterlimit:10;stroke-dasharray:none;stroke-opacity:1"
       transform="scale(1.3315187,1.3333333)" />
    <text
       id="text54"
       xml:space="preserve"
       transform="matrix(1.3333333,0,0,1.3351505,21.491601,205.58089)"><tspan
         style="font-variant:normal;font-weight:normal;font-size:10.0155px;font-family:'DejaVu Sans';writing-mode:lr-tb;fill:#000000;fill-opacity:1;fill-rule:nonzero;stroke:none"
         x="0 6.3721528 9.5557842"
         y="0"
         sodipodi:role="line"
         id="tspan54">0.0</tspan></text>
    <path
       id="path55"
       d="M 39.112,121.418 H 35.603"
       style="fill:none;stroke:#000000;stroke-width:0.802335;stroke-linecap:butt;stroke-linejoin:round;stroke-miterlimit:10;stroke-dasharray:none;stroke-opacity:1"
       transform="scale(1.3315187,1.3333333)" />
    <text
       id="text55"
       xml:space="preserve"
       transform="matrix(1.3333333,0,0,1.3351505,21.491601,166.96665)"><tspan
         style="font-variant:normal;font-weight:normal;font-size:10.0155px;font-family:'DejaVu Sans';writing-mode:lr-tb;fill:#000000;fill-opacity:1;fill-rule:nonzero;stroke:none"
         x="0 6.3721528 9.5557842"
         y="0"
         sodipodi:role="line"
         id="tspan55">0.1</tspan></text>
    <path
       id="path56"
       d="M 39.112,92.457 H 35.603"
       style="fill:none;stroke:#000000;stroke-width:0.802335;stroke-linecap:butt;stroke-linejoin:round;stroke-miterlimit:10;stroke-dasharray:none;stroke-opacity:1"
       transform="scale(1.3315187,1.3333333)" />
    <text
       id="text56"
       xml:space="preserve"
       transform="matrix(1.3333333,0,0,1.3351505,21.491601,128.35238)"><tspan
         style="font-variant:normal;font-weight:normal;font-size:10.0155px;font-family:'DejaVu Sans';writing-mode:lr-tb;fill:#000000;fill-opacity:1;fill-rule:nonzero;stroke:none"
         x="0 6.3721528 9.5557842"
         y="0"
         sodipodi:role="line"
         id="tspan56">0.2</tspan></text>
    <path
       id="path57"
       d="M 39.112,63.496 H 35.603"
       style="fill:none;stroke:#000000;stroke-width:0.802335;stroke-linecap:butt;stroke-linejoin:round;stroke-miterlimit:10;stroke-dasharray:none;stroke-opacity:1"
       transform="scale(1.3315187,1.3333333)" />
    <text
       id="text57"
       xml:space="preserve"
       transform="matrix(1.3333333,0,0,1.3351505,21.491601,89.738124)"><tspan
         style="font-variant:normal;font-weight:normal;font-size:10.0155px;font-family:'DejaVu Sans';writing-mode:lr-tb;fill:#000000;fill-opacity:1;fill-rule:nonzero;stroke:none"
         x="0 6.3721528 9.5557842"
         y="0"
         sodipodi:role="line"
         id="tspan57">0.3</tspan></text>
    <path
       id="path58"
       d="M 39.112,34.535 H 35.603"
       style="fill:none;stroke:#000000;stroke-width:0.802335;stroke-linecap:butt;stroke-linejoin:round;stroke-miterlimit:10;stroke-dasharray:none;stroke-opacity:1"
       transform="scale(1.3315187,1.3333333)" />
    <text
       id="text58"
       xml:space="preserve"
       transform="matrix(1.3333333,0,0,1.3351505,21.491601,51.123873)"><tspan
         style="font-variant:normal;font-weight:normal;font-size:10.0155px;font-family:'DejaVu Sans';writing-mode:lr-tb;fill:#000000;fill-opacity:1;fill-rule:nonzero;stroke:none"
         x="0 6.3721528 9.5557842"
         y="0"
         sodipodi:role="line"
         id="tspan58">0.4</tspan></text>
    <path
       id="path59"
       d="M 39.112,5.574 H 35.603"
       style="fill:none;stroke:#000000;stroke-width:0.802335;stroke-linecap:butt;stroke-linejoin:round;stroke-miterlimit:10;stroke-dasharray:none;stroke-opacity:1"
       transform="scale(1.3315187,1.3333333)" />
    <text
       id="text59"
       xml:space="preserve"
       transform="matrix(1.3333333,0,0,1.3351505,21.491601,12.509616)"><tspan
         style="font-variant:normal;font-weight:normal;font-size:10.0155px;font-family:'DejaVu Sans';writing-mode:lr-tb;fill:#000000;fill-opacity:1;fill-rule:nonzero;stroke:none"
         x="0 6.3721528 9.5557842"
         y="0"
         sodipodi:role="line"
         id="tspan59">0.5</tspan></text>
    <text
       id="text60"
       xml:space="preserve"
       transform="matrix(0,-1.0006812,0.99931926,0,0,0)"
       x="-171.08397"
       y="14.309807"
       style="font-size:20.1435px;stroke-width:1.67863"><tspan
         style="font-style:oblique;font-variant:normal;font-weight:normal;font-size:16.8351px;font-family:'DejaVu Sans';writing-mode:lr-tb;fill:#000000;fill-opacity:1;fill-rule:nonzero;stroke:none;stroke-width:1.67863"
         x="-171.08397"
         y="14.309807"
         id="tspan60">w</tspan><tspan
         style="font-variant:normal;font-weight:normal;font-size:16.8351px;font-family:'DejaVu Sans';writing-mode:lr-tb;fill:#000000;fill-opacity:1;fill-rule:nonzero;stroke:none;stroke-width:1.67863"
         x="-157.31497"
         y="14.309807"
         id="tspan61">(</tspan><tspan
         style="font-style:oblique;font-variant:normal;font-weight:normal;font-size:16.8351px;font-family:'DejaVu Sans';writing-mode:lr-tb;fill:#000000;fill-opacity:1;fill-rule:nonzero;stroke:none;stroke-width:1.67863"
         x="-150.74696"
         y="14.309807"
         id="tspan62">d</tspan><tspan
         style="font-variant:normal;font-weight:normal;font-size:16.8351px;font-family:'DejaVu Sans';writing-mode:lr-tb;fill:#000000;fill-opacity:1;fill-rule:nonzero;stroke:none;stroke-width:1.67863"
         x="-140.06058"
         y="14.309807"
         id="tspan63">)</tspan></text>
    <g
       id="g64"
       clip-path="url(#clipPath65)">
      <path
         d="M 39.112,-150.379 H 318.926"
         style="fill:none;stroke:#999999;stroke-width:1.50437;stroke-linecap:butt;stroke-linejoin:round;stroke-miterlimit:10;stroke-dasharray:1.50437, 2.48222;stroke-dashoffset:0;stroke-opacity:1"
         transform="scale(1.3315187,-1.3333333)"
         clip-path="url(#clipPath63)"
         id="path64" />
    </g>
    <g
       id="g67"
       clip-path="url(#clipPath68)">
      <path
         d="M 179.021,-225.477 V -3.07"
         style="fill:none;stroke:#999999;stroke-width:1.50437;stroke-linecap:butt;stroke-linejoin:round;stroke-miterlimit:10;stroke-dasharray:1.50437, 2.48222;stroke-dashoffset:0;stroke-opacity:1"
         transform="scale(1.3315187,-1.3333333)"
         clip-path="url(#clipPath66)"
         id="path67" />
    </g>
    <g
       id="g70"
       clip-path="url(#clipPath71)">
      <path
         d="m 39.112,-150.965 7.749,-0.449 6.458,-0.59 5.597,-0.73 4.737,-0.828 4.303,-0.958 4.306,-1.191 3.873,-1.309 3.876,-1.554 3.442,-1.621 3.443,-1.86 3.446,-2.117 3.442,-2.387 3.446,-2.652 3.872,-3.293 4.307,-3.984 13.342,-12.668 2.156,-1.633 2.151,-1.352 1.721,-0.816 1.721,-0.539 1.291,-0.188 1.295,0.016 1.291,0.25 1.29,0.496 1.291,0.77 1.291,1.062 1.291,1.375 1.295,1.711 1.291,2.055 1.29,2.418 1.721,3.812 1.722,4.5 1.725,5.192 1.721,5.879 2.151,8.289 2.151,9.25 2.586,12.203 3.012,15.383 9.039,47.156 2.152,9.812 1.725,7.032 1.721,6.152 1.291,3.965 1.291,3.355 1.29,2.711 0.861,1.43 0.864,1.117 0.861,0.805 0.86,0.484 0.861,0.164 0.861,-0.164 0.86,-0.484 0.861,-0.805 0.86,-1.117 0.861,-1.43 1.294,-2.711 1.291,-3.355 1.291,-3.965 1.721,-6.152 1.721,-7.032 2.156,-9.812 2.581,-12.887 4.733,-25.137 4.307,-22.382 2.581,-12.379 2.156,-9.434 2.151,-8.484 2.152,-7.457 1.721,-5.192 1.725,-4.5 1.721,-3.812 1.721,-3.145 1.291,-1.937 1.29,-1.594 1.291,-1.27 1.295,-0.964 1.291,-0.676 1.291,-0.41 1.29,-0.168 1.291,0.05 1.291,0.254 1.725,0.614 1.721,0.879 2.152,1.414 2.151,1.683 3.016,2.672 4.733,4.582 7.318,7.09 3.877,3.453 3.872,3.152 3.446,2.52 3.442,2.25 3.443,1.988 3.446,1.739 3.442,1.503 3.876,1.442 3.873,1.207 4.306,1.094 4.733,0.949 5.168,0.793 5.597,0.625 6.458,0.504 5.163,0.273"
         style="fill:none;stroke:#00194c;stroke-width:1.50437;stroke-linecap:square;stroke-linejoin:round;stroke-miterlimit:10;stroke-dasharray:none;stroke-opacity:1"
         transform="scale(1.3315187,-1.3333333)"
         clip-path="url(#clipPath69)"
         id="path70" />
    </g>
    <path
       id="path72"
       d="M 39.112,225.477 V 3.07"
       style="fill:none;stroke:#000000;stroke-width:0.802335;stroke-linecap:square;stroke-linejoin:miter;stroke-miterlimit:10;stroke-dasharray:none;stroke-opacity:1"
       transform="scale(1.3315187,1.3333333)" />
    <path
       id="path73"
       d="M 318.926,225.477 V 3.07"
       style="fill:none;stroke:#000000;stroke-width:0.802335;stroke-linecap:square;stroke-linejoin:miter;stroke-miterlimit:10;stroke-dasharray:none;stroke-opacity:1"
       transform="scale(1.3315187,1.3333333)" />
    <path
       id="path74"
       d="M 39.112,225.477 H 318.926"
       style="fill:none;stroke:#000000;stroke-width:0.802335;stroke-linecap:square;stroke-linejoin:miter;stroke-miterlimit:10;stroke-dasharray:none;stroke-opacity:1"
       transform="scale(1.3315187,1.3333333)" />
    <path
       id="path75"
       d="M 39.112,3.07 H 318.926"
       style="fill:none;stroke:#000000;stroke-width:0.802335;stroke-linecap:square;stroke-linejoin:miter;stroke-miterlimit:10;stroke-dasharray:none;stroke-opacity:1"
       transform="scale(1.3315187,1.3333333)" />
  </g>
</svg>
